G04*
G04 #@! TF.GenerationSoftware,Altium Limited,Altium Designer,24.9.1 (31)*
G04*
G04 Layer_Physical_Order=1*
G04 Layer_Color=255*
%FSLAX44Y44*%
%MOMM*%
G71*
G04*
G04 #@! TF.SameCoordinates,42158749-AA78-4F09-95E6-82FBF0D2540F*
G04*
G04*
G04 #@! TF.FilePolarity,Positive*
G04*
G01*
G75*
%ADD19C,1.2700*%
%ADD20C,2.0000*%
%ADD21R,2.0000X2.0000*%
%ADD22C,1.2700*%
D19*
X545524Y111760D02*
X735330Y301565D01*
X285750Y72435D02*
X325075Y111760D01*
X545524D01*
X180340Y213323D02*
X204507Y237490D01*
X220980D01*
X849630Y265430D02*
X895350D01*
X910590Y250190D01*
X1096010D01*
X777240Y337820D02*
X849630Y265430D01*
X814070Y195580D02*
X1012190D01*
X1016000Y199390D01*
X853440Y643846D02*
Y645160D01*
Y643846D02*
X979126Y518160D01*
X1057954D01*
X1183640Y392475D01*
Y391160D02*
Y392475D01*
X285750Y71120D02*
Y72435D01*
X735330Y301565D02*
Y302880D01*
X345440Y139700D02*
Y228600D01*
X608330Y302880D02*
Y511810D01*
X613410Y516890D01*
X180340Y157814D02*
X209550Y128604D01*
X180340Y157814D02*
Y213323D01*
X209550Y71120D02*
Y128604D01*
X195580Y207010D02*
X234950Y167640D01*
Y71120D02*
Y167640D01*
X342900Y231140D02*
X345440Y228600D01*
X633730Y337820D02*
X777240D01*
X260350Y229870D02*
X262890Y232410D01*
X260350Y71120D02*
Y229870D01*
X988060Y356870D02*
X1010920Y334010D01*
X955491Y356870D02*
X988060D01*
X922020Y332740D02*
X931361D01*
X955491Y356870D01*
X1096010Y250190D02*
X1199534Y353714D01*
D20*
X1075690Y723900D02*
D03*
Y698500D02*
D03*
X859720Y713740D02*
D03*
X1009720D02*
D03*
X107950Y71120D02*
D03*
X133350D02*
D03*
X158750D02*
D03*
X184150D02*
D03*
X209550D02*
D03*
X234950D02*
D03*
X260350D02*
D03*
X285750D02*
D03*
X311150D02*
D03*
X336550D02*
D03*
X361950D02*
D03*
X387350D02*
D03*
X412750D02*
D03*
X438150D02*
D03*
X1332230Y822960D02*
D03*
X1162230Y878360D02*
D03*
Y852960D02*
D03*
Y752560D02*
D03*
Y777960D02*
D03*
X1009720Y919480D02*
D03*
X859720D02*
D03*
X1158240Y645160D02*
D03*
X1132840D02*
D03*
X1107440D02*
D03*
X1082040D02*
D03*
X1056640D02*
D03*
X1031240D02*
D03*
X1005840D02*
D03*
X980440D02*
D03*
X955040D02*
D03*
X929640D02*
D03*
X904240D02*
D03*
X878840D02*
D03*
X853440D02*
D03*
X828040D02*
D03*
X726440Y391160D02*
D03*
X802640Y645160D02*
D03*
X777240D02*
D03*
X751840D02*
D03*
X726440D02*
D03*
X980440Y391160D02*
D03*
X955040D02*
D03*
X929640D02*
D03*
X904240D02*
D03*
X878840D02*
D03*
X853440D02*
D03*
X828040D02*
D03*
X802640D02*
D03*
X777240D02*
D03*
X751840D02*
D03*
X1005840D02*
D03*
X1031240D02*
D03*
X1056640D02*
D03*
X1082040D02*
D03*
X1107440D02*
D03*
X1132840D02*
D03*
X1158240D02*
D03*
X1183640D02*
D03*
Y645160D02*
D03*
X633730Y62880D02*
D03*
X659130D02*
D03*
X684530D02*
D03*
X709930D02*
D03*
X582930Y302880D02*
D03*
X608330D02*
D03*
X633730D02*
D03*
X659130D02*
D03*
X684530D02*
D03*
X709930D02*
D03*
X735330D02*
D03*
X760730D02*
D03*
X908050Y64150D02*
D03*
X933450D02*
D03*
X958850D02*
D03*
X984250D02*
D03*
X857250Y304150D02*
D03*
X882650D02*
D03*
X908050D02*
D03*
X933450D02*
D03*
X958850D02*
D03*
X984250D02*
D03*
X1009650D02*
D03*
X1035050D02*
D03*
X1283970Y261620D02*
D03*
X1258570D02*
D03*
X1233170D02*
D03*
X1207770D02*
D03*
X1182370D02*
D03*
X1156970D02*
D03*
X1233170Y109220D02*
D03*
X1207770D02*
D03*
D21*
X1049080Y786690D02*
D03*
Y856690D02*
D03*
X739080Y786690D02*
D03*
Y856690D02*
D03*
D22*
X895350Y265430D02*
D03*
X1016000Y199390D02*
D03*
X814070Y195580D02*
D03*
X345440Y139700D02*
D03*
X613410Y516890D02*
D03*
X220980Y237490D02*
D03*
X195580Y207010D02*
D03*
X633730Y337820D02*
D03*
X342900Y231140D02*
D03*
X262890Y232410D02*
D03*
X1010920Y334010D02*
D03*
X922020Y332740D02*
D03*
X1199534Y353714D02*
D03*
M02*
