G04*
G04 #@! TF.GenerationSoftware,Altium Limited,Altium Designer,24.9.1 (31)*
G04*
G04 Layer_Color=8388736*
%FSLAX44Y44*%
%MOMM*%
G71*
G04*
G04 #@! TF.SameCoordinates,F298FDAE-6646-423D-B043-EFA0C6B3EB49*
G04*
G04*
G04 #@! TF.FilePolarity,Positive*
G04*
G01*
G75*
%ADD10C,0.2000*%
%ADD14C,0.2540*%
%ADD28C,0.1000*%
D10*
X972720Y715072D02*
Y705075D01*
X967721D01*
X966055Y706742D01*
Y710074D01*
X967721Y711740D01*
X972720D01*
X969388D02*
X966055Y715072D01*
X956059D02*
X962723D01*
X956059Y708408D01*
Y706742D01*
X957725Y705075D01*
X961057D01*
X962723Y706742D01*
X198379Y103117D02*
X195047Y106449D01*
X188382D01*
X185050Y103117D01*
Y99784D01*
X188382Y96452D01*
X195047D01*
X198379Y93120D01*
Y89788D01*
X195047Y86455D01*
X188382D01*
X185050Y89788D01*
X218373Y103117D02*
X215040Y106449D01*
X208376D01*
X205044Y103117D01*
Y89788D01*
X208376Y86455D01*
X215040D01*
X218373Y89788D01*
X225037Y86455D02*
Y106449D01*
X235034D01*
X238366Y103117D01*
Y96452D01*
X235034Y93120D01*
X225037D01*
X231702D02*
X238366Y86455D01*
X245031D02*
X251695D01*
X248363D01*
Y106449D01*
X245031Y103117D01*
X1265894Y863460D02*
X1257564D01*
X1255898Y861794D01*
Y858462D01*
X1257564Y856796D01*
X1265894D01*
X1255898Y846799D02*
Y853463D01*
X1262562Y846799D01*
X1264228D01*
X1265894Y848465D01*
Y851797D01*
X1264228Y853463D01*
X896720Y918148D02*
Y928145D01*
X901718D01*
X903384Y926478D01*
Y923146D01*
X901718Y921480D01*
X896720D01*
X900052D02*
X903384Y918148D01*
X906717D02*
X910049D01*
X908383D01*
Y928145D01*
X906717Y926478D01*
X1268470Y166755D02*
Y175086D01*
X1266804Y176752D01*
X1263472D01*
X1261805Y175086D01*
Y166755D01*
X1251809D02*
X1258473D01*
Y171754D01*
X1255141Y170088D01*
X1253475D01*
X1251809Y171754D01*
Y175086D01*
X1253475Y176752D01*
X1256807D01*
X1258473Y175086D01*
X932080Y840355D02*
Y832024D01*
X930414Y830358D01*
X927082D01*
X925415Y832024D01*
Y840355D01*
X922083Y838688D02*
X920417Y840355D01*
X917085D01*
X915419Y838688D01*
Y837022D01*
X917085Y835356D01*
X918751D01*
X917085D01*
X915419Y833690D01*
Y832024D01*
X917085Y830358D01*
X920417D01*
X922083Y832024D01*
D14*
X972657Y530856D02*
X959962D01*
X957422Y528317D01*
Y523238D01*
X959962Y520699D01*
X972657D01*
Y505464D02*
X970118Y510542D01*
X965040Y515621D01*
X959962D01*
X957422Y513082D01*
Y508003D01*
X959962Y505464D01*
X962501D01*
X965040Y508003D01*
Y515621D01*
X611046Y157802D02*
Y170497D01*
X608507Y173037D01*
X603429D01*
X600890Y170497D01*
Y157802D01*
X588194Y173037D02*
Y157802D01*
X595811Y165419D01*
X585655D01*
X880288Y159072D02*
Y171767D01*
X877749Y174307D01*
X872671D01*
X870131Y171767D01*
Y159072D01*
X865053Y174307D02*
X859975D01*
X862514D01*
Y159072D01*
X865053Y161611D01*
D28*
X1105211Y741252D02*
X1104378Y740419D01*
Y738753D01*
X1105211Y737920D01*
X1106044D01*
X1106877Y738753D01*
Y740419D01*
X1107710Y741252D01*
X1108543D01*
X1109376Y740419D01*
Y738753D01*
X1108543Y737920D01*
X1104378Y742918D02*
X1109376D01*
X1107710Y744585D01*
X1109376Y746251D01*
X1104378D01*
X1109376Y747917D02*
Y749583D01*
Y748750D01*
X1104378D01*
X1105211Y747917D01*
M02*
