G04*
G04 #@! TF.GenerationSoftware,Altium Limited,Altium Designer,24.9.1 (31)*
G04*
G04 Layer_Color=65535*
%FSLAX44Y44*%
%MOMM*%
G71*
G04*
G04 #@! TF.SameCoordinates,F298FDAE-6646-423D-B043-EFA0C6B3EB49*
G04*
G04*
G04 #@! TF.FilePolarity,Positive*
G04*
G01*
G75*
%ADD10C,0.2000*%
%ADD11C,0.1270*%
%ADD12C,0.3000*%
%ADD13C,0.4000*%
%ADD14C,0.2540*%
D10*
X1184640Y670560D02*
G03*
X1184640Y670560I-1000J0D01*
G01*
X997680Y861627D02*
Y854962D01*
X1001012Y851630D01*
X1004344Y854962D01*
Y861627D01*
X1007677D02*
X1011009D01*
X1009343D01*
Y851630D01*
X1007677D01*
X1011009D01*
X1016007D02*
Y861627D01*
X1022672Y851630D01*
Y861627D01*
X1026004Y856628D02*
X1032669D01*
X1029336Y859961D02*
Y853296D01*
X996410Y791777D02*
Y785112D01*
X999742Y781780D01*
X1003074Y785112D01*
Y791777D01*
X1006407D02*
X1009739D01*
X1008073D01*
Y781780D01*
X1006407D01*
X1009739D01*
X1014737D02*
Y791777D01*
X1021402Y781780D01*
Y791777D01*
X1024734Y786778D02*
X1031399D01*
X760190Y790507D02*
Y783842D01*
X763522Y780510D01*
X766854Y783842D01*
Y790507D01*
X775185D02*
X771853D01*
X770187Y788841D01*
Y782176D01*
X771853Y780510D01*
X775185D01*
X776851Y782176D01*
Y788841D01*
X775185Y790507D01*
X780184D02*
Y782176D01*
X781850Y780510D01*
X785182D01*
X786848Y782176D01*
Y790507D01*
X790180D02*
X796845D01*
X793513D01*
Y780510D01*
X800177Y785508D02*
X806842D01*
X761460Y862897D02*
Y856232D01*
X764792Y852900D01*
X768124Y856232D01*
Y862897D01*
X776455D02*
X773123D01*
X771457Y861231D01*
Y854566D01*
X773123Y852900D01*
X776455D01*
X778121Y854566D01*
Y861231D01*
X776455Y862897D01*
X781454D02*
Y854566D01*
X783120Y852900D01*
X786452D01*
X788118Y854566D01*
Y862897D01*
X791450D02*
X798115D01*
X794783D01*
Y852900D01*
X801447Y857898D02*
X808112D01*
X804779Y861231D02*
Y854566D01*
D11*
X697409Y430310D02*
Y607210D01*
X697540Y375860D02*
X1207040D01*
X697540Y660960D02*
X1207040D01*
Y375860D02*
Y483160D01*
Y550270D01*
Y660960D01*
X697540D02*
X1207040D01*
Y375860D02*
Y660960D01*
X697409Y375810D02*
Y660910D01*
X697540Y375860D02*
X1207040D01*
D12*
X796830Y42880D02*
Y322880D01*
X546830Y42880D02*
X796830D01*
X546830D02*
Y322880D01*
X796830D01*
X1088710Y744220D02*
Y786920D01*
X1128710D01*
Y726920D02*
Y786920D01*
X1088710Y726920D02*
X1128710D01*
X1088710D02*
Y744220D01*
X929720Y693740D02*
X1029720D01*
Y733740D01*
X839720D02*
X1029720D01*
X839720Y693740D02*
Y733740D01*
Y693740D02*
X929720D01*
X1142230Y902960D02*
X1352230D01*
Y732960D02*
Y902960D01*
X1142230Y732960D02*
X1352230D01*
X1142230D02*
Y902960D01*
X839720Y939480D02*
X939720D01*
X839720Y899480D02*
Y939480D01*
Y899480D02*
X1029720D01*
Y939480D01*
X939720D02*
X1029720D01*
X821150Y324150D02*
X1071150D01*
X821150Y44150D02*
Y324150D01*
Y44150D02*
X1071150D01*
Y324150D01*
X1093970Y291620D02*
X1343970D01*
X1093970Y71620D02*
Y291620D01*
Y71620D02*
X1343970D01*
Y291620D01*
X734080Y761690D02*
X1074080D01*
Y881690D01*
X714080D02*
X1074080D01*
X714080Y761690D02*
Y881690D01*
Y761690D02*
X734080D01*
D13*
X17950Y41120D02*
X517950D01*
Y901120D01*
X17950D02*
X517950D01*
X17950Y41120D02*
Y901120D01*
D14*
X692150Y695447D02*
Y682751D01*
X694689Y680212D01*
X699768D01*
X702307Y682751D01*
Y695447D01*
X717542D02*
X712463Y692908D01*
X707385Y687830D01*
Y682751D01*
X709924Y680212D01*
X715003D01*
X717542Y682751D01*
Y685290D01*
X715003Y687830D01*
X707385D01*
X547878Y347213D02*
Y334517D01*
X550417Y331978D01*
X555495D01*
X558035Y334517D01*
Y347213D01*
X570731Y331978D02*
Y347213D01*
X563113Y339595D01*
X573270D01*
X1094994Y315971D02*
Y303275D01*
X1097533Y300736D01*
X1102611D01*
X1105151Y303275D01*
Y315971D01*
X1120386D02*
X1110229D01*
Y308354D01*
X1115307Y310893D01*
X1117847D01*
X1120386Y308354D01*
Y303275D01*
X1117847Y300736D01*
X1112768D01*
X1110229Y303275D01*
X1096008Y881376D02*
X1083312D01*
X1080772Y878837D01*
Y873758D01*
X1083312Y871219D01*
X1096008D01*
X1093468Y866141D02*
X1096008Y863602D01*
Y858523D01*
X1093468Y855984D01*
X1090929D01*
X1088390Y858523D01*
Y861062D01*
Y858523D01*
X1085851Y855984D01*
X1083312D01*
X1080772Y858523D01*
Y863602D01*
X1083312Y866141D01*
X1148084Y927097D02*
Y914402D01*
X1150623Y911862D01*
X1155702D01*
X1158241Y914402D01*
Y927097D01*
X1173476Y911862D02*
X1163319D01*
X1173476Y922019D01*
Y924558D01*
X1170937Y927097D01*
X1165858D01*
X1163319Y924558D01*
X822198Y348483D02*
Y335787D01*
X824737Y333248D01*
X829816D01*
X832355Y335787D01*
Y348483D01*
X837433Y333248D02*
X842511D01*
X839972D01*
Y348483D01*
X837433Y345944D01*
X1073148Y750572D02*
X1075687Y748032D01*
X1080765D01*
X1083304Y750572D01*
Y753111D01*
X1080765Y755650D01*
X1075687D01*
X1073148Y758189D01*
Y760728D01*
X1075687Y763268D01*
X1080765D01*
X1083304Y760728D01*
X1068069Y748032D02*
Y763268D01*
X1062991Y758189D01*
X1057912Y763268D01*
Y748032D01*
X1052834Y763268D02*
X1047756D01*
X1050295D01*
Y748032D01*
X1052834Y750572D01*
X38105Y924558D02*
X35566Y927097D01*
X30487D01*
X27948Y924558D01*
Y922019D01*
X30487Y919480D01*
X35566D01*
X38105Y916941D01*
Y914402D01*
X35566Y911862D01*
X30487D01*
X27948Y914402D01*
X53340Y924558D02*
X50801Y927097D01*
X45722D01*
X43183Y924558D01*
Y914402D01*
X45722Y911862D01*
X50801D01*
X53340Y914402D01*
X58418Y911862D02*
Y927097D01*
X66036D01*
X68575Y924558D01*
Y919480D01*
X66036Y916941D01*
X58418D01*
X63497D02*
X68575Y911862D01*
X73653D02*
X78732D01*
X76193D01*
Y927097D01*
X73653Y924558D01*
X876304Y740413D02*
Y755648D01*
X883922D01*
X886461Y753108D01*
Y748030D01*
X883922Y745491D01*
X876304D01*
X881383D02*
X886461Y740413D01*
X901696D02*
X891539D01*
X901696Y750569D01*
Y753108D01*
X899157Y755648D01*
X894078D01*
X891539Y753108D01*
X812803Y915673D02*
Y930908D01*
X820421D01*
X822960Y928368D01*
Y923290D01*
X820421Y920751D01*
X812803D01*
X817882D02*
X822960Y915673D01*
X828038D02*
X833117D01*
X830578D01*
Y930908D01*
X828038Y928368D01*
M02*
