M48
;Layer_Color=9474304
;FILE_FORMAT=4:4
METRIC,LZ
;TYPE=PLATED
T01F00S00C0.7112
T02F00S00C1.0000
T03F00S00C1.0200
%
T01
X0034544Y001397
X01016Y0019939
X0101092Y0033401
X01199534Y00353714
X0092202Y0033274
X0089535Y0026543
X0081407Y0019558
X0063373Y0033782
X0061341Y0051689
X003429Y0023114
X0026289Y0023241
X0022098Y0023749
X0019558Y0020701
T02
X0010795Y0007112
X0013335
X0015875
X0018415
X0020955
X0023495
X0026035
X0028575
X0031115
X0033655
X0036195
X0038735
X0041275
X0043815
X0063373Y0006288
X0065913
X0068453
X0070993
X0090805Y0006415
X0093345
X0095885
X0098425
X0120777Y0010922
X0123317
Y0026162
X0125857
X0128397
X0120777
X0118237
X0115697
X0103505Y0030415
X0100965
X0098425
X0095885
X0093345
X0090805
X0088265
X0085725
X0076073Y0030288
X0073533
X0070993
X0068453
X0065913
X0063373
X0060833
X0058293
X0073908Y0078669
Y0085669
X0085972Y0091948
Y0071374
X0100972
X0104908Y0078669
Y0085669
X0100972Y0091948
X0116223Y0087836
Y0085296
Y0077796
Y0075256
X0110871Y0074422
Y0076962
X0133223Y0082296
T03
X0095504Y0039116
X0098044
X0100584
X0103124
X0105664
X0108204
X0110744
X0113284
X0115824
X0118364
X0092964
X0090424
X0087884
X0085344
X0082804
X0080264
X0077724
X0075184
X0072644
Y0064516
X0075184
X0077724
X0080264
X0082804
X0085344
X0087884
X0090424
X0092964
X0095504
X0098044
X0100584
X0103124
X0105664
X0108204
X0110744
X0113284
X0115824
X0118364
M30
